<svg xmlns="http://www.w3.org/2000/svg" xmlns:xlink="http://www.w3.org/1999/xlink" viewBox="0 0 187.95 245.38"><defs><style>.cls-1{fill:url(#linear-gradient);}.cls-2{fill:url(#linear-gradient-2);}.cls-3{fill:url(#linear-gradient-3);}.cls-4{fill:url(#linear-gradient-4);}</style><linearGradient id="linear-gradient" x1="123.36" y1="114.66" x2="17.4" y2="117.66" gradientUnits="userSpaceOnUse"><stop offset="0" stop-color="#f7a42d"/><stop offset="1" stop-color="#c13332"/></linearGradient><linearGradient id="linear-gradient-2" x1="0" y1="134.4" x2="77.91" y2="134.4" xlink:href="#linear-gradient"/><linearGradient id="linear-gradient-3" x1="145.41" y1="123.3" x2="49.52" y2="187.3" xlink:href="#linear-gradient"/><linearGradient id="linear-gradient-4" x1="46.8" y1="194.56" x2="187.95" y2="194.56" xlink:href="#linear-gradient"/></defs><title>firesymbol</title><g id="Layer_2" data-name="Layer 2"><g id="Layer_2-2" data-name="Layer 2"><path class="cls-1" d="M73.44,61.52S93.2,33.79,66.26,0c0,0,52.53,15.25,59.56,90.47,0,0,2.16,49.75-27.57,70,0,0-3.47-12.58-12.4-16.59-17.8-8-31.55-.37-38.29,5.1s-12.22,18.24-15.5,38.11,21.52,45.82,21.52,45.82-65.33-36.17-46.69-83.84S73.44,61.52,73.44,61.52Z"/><path class="cls-2" d="M.71,173.07C-5.74,136.45,33.66,92.44,49.4,68.83s0-45.41,0-45.41,34.29,24,23.66,61.63c0,0-8,25.15-17.35,34.09-8.24,7.92-25.46,25.66-30.28,57.2a48.69,48.69,0,0,0,7.13,33.83c7.2,11.11,20.57,24.62,45.35,35.21,0,0-72.47-11.91-77.2-72.31"/><path class="cls-3" d="M137.41,92.71c-.22-17.63-8.7-39.29-8.7-39.29,20.58,10.29,25.41,53.29,25.41,53.29s2.24,33.62-10.3,56.56c0,0,20.24-29.73,21-42l1.58-7.78c5.89,6.28,8.79,37.56,8.79,37.56s9.65,46.5-62.32,67.2c-52.53,15.11-52.53-53.38-52.53-53.38S65.06,187.57,85.6,183s45.63-27.95,50.51-74.09A149.83,149.83,0,0,0,137.41,92.71Z"/><path class="cls-4" d="M175.83,176.8a38.35,38.35,0,0,1-6.72,10.75c-5.92,6.66-10.74,9.83-12.09,10.48-.19.09-1.74.8-1.93.91C50,254.6,61.38,155.42,61.38,155.42c-4.15,3.38-4.66,4.21-11.68,15.44S46.43,227,82.92,237c28.85,7.9,41.35,3.31,45.32,1,0,0,59.71-17.63,59.71-90.34Z"/></g></g></svg>