<svg xmlns="http://www.w3.org/2000/svg" viewBox="0 0 219.55 304.74"><defs><style>.cls-1{fill:#304898;stroke:#192891;stroke-miterlimit:10;}</style></defs><title>Marker-estuary</title><g id="Layer_2" data-name="Layer 2"><g id="Layer_2-2" data-name="Layer 2"><path class="cls-1" d="M219,97.76A110,110,0,0,0,.59,96.83c11.8-3.2,34-8.66,55.51-10.85a55.09,55.09,0,1,1,106.39,28.45C177.37,113.1,196,108.34,219,97.76Zm-73.94,43a55.1,55.1,0,0,1-88.54-28c-22.38,2.38-45.24,8.43-55.48,11.37C3.52,138.36,9.4,155,17.23,172.32c68.7-20.54,90.26,12.45,90.26,12.45,11.62,18.39,51.08,15.54,83.41,9.52,13.31-24.93,23.92-50,27.52-70.17C185.63,139.09,161.86,142.35,145.07,140.77Zm-37.58,74.36s-18.8-29.28-77.25-16.57c28.83,53.77,69.2,105.68,79.51,105.68,7.11,0,35.57-34.58,61.77-76.52C144,230.87,116.67,229.66,107.49,215.13Z"/></g></g></svg>