<svg xmlns="http://www.w3.org/2000/svg" viewBox="0 0 39.88 255.66"><defs><style>.cls-1{fill:#ffeecf;}.cls-1,.cls-2{stroke:#1d1d1b;stroke-miterlimit:10;stroke-width:0.5px;}.cls-2{fill:#e9bd79;}</style></defs><title>themonumentlondon</title><g id="Layer_2" data-name="Layer 2"><g id="Layer_1-2" data-name="Layer 1"><path class="cls-1" d="M24.52,17.93V22.2l2.21,3V53.92L29.42,185.7l1.42,1v1.42l1.85,1.79c8.49,1.54,4.82,13.88,4.82,13.88l-2.12,3.47v34.32l4.24,5.79v8.09H.25v-8.09l4.24-5.79V207.21l-2.12-3.47s-3.66-12.34,4.82-13.88l1.86-1.79v-1.42l1.42-1L13.15,53.92V25.19l2.21-3V17.93"/><path class="cls-2" d="M27,16.19c0,1.31-3.11,2.37-6.93,2.37s-6.93-1.06-6.93-2.37c0-1,1.76-1.82,4.27-2.16a3.35,3.35,0,0,1-.54-1.81A3.25,3.25,0,0,1,18,9.8a2.1,2.1,0,0,1-.14-.8,2.16,2.16,0,0,1,.33-1.16,4,4,0,1,1,3.88,0A2.25,2.25,0,0,1,22.38,9a2.32,2.32,0,0,1-.14.8A3.22,3.22,0,0,1,22.77,14C25.28,14.37,27,15.21,27,16.19Z"/></g></g></svg>